<svg xmlns="http://www.w3.org/2000/svg" enable-background="new 0 0 500 500" viewBox="0 0 500 500" id="delivery-box-weight"><path d="M442.6,141.2c0-42.8-34.9-77.7-77.7-77.7c-42.7,0-77.4,34.4-77.8,76.9H115.2c-9.6,0-17.4,7.8-17.4,17.4v172.8
		c0,2.4,0.5,4.6,1.3,6.6H84.7c-15,0-27.3,13.6-27.3,30.4v7.3c0,19.6,15.9,35.6,35.6,35.6h13.9v10.1c0,8.8,7.1,15.9,15.9,15.9h43.6
		c8.8,0,15.9-7.1,15.9-15.9v-10.1h124.3v10.1c0,8.8,7.1,15.9,15.9,15.9h43.6c8.8,0,15.9-7.1,15.9-15.9v-10.1h13.7
		c19.6,0,35.6-15.9,35.6-35.6v-7.3c0-16.8-12.4-30.4-27.6-30.4h-18.4V215.9C418.8,206.8,442.6,176.5,442.6,141.2z M358.9,80.3v4.4
		c0,4.3,3.5,7.8,7.8,7.8c4.3,0,7.8-3.5,7.8-7.8v-4c26.7,4.2,47.5,25.6,51.1,52.5h-3.4c-4.3,0-7.8,3.5-7.8,7.8c0,4.3,3.5,7.8,7.8,7.8
		h3.5c-3.2,26.5-23.1,48.3-50,53.1c-0.6,0.1-1.4,0.1-2,0.2v-5.6c0-4.3-3.5-7.8-7.8-7.8c-4.3,0-7.8,3.5-7.8,7.8v5.8
		c-1.4-0.2-2.9-0.1-4.2-0.4c-8.6-1.7-16.4-4.8-23.3-9.5c-15.1-9.9-24.9-25.9-26.9-44.4h6.7c4.3,0,7.8-3.5,7.8-7.8s-3.5-7.8-7.8-7.8
		h-6.3C308.1,104.6,330.7,83,358.9,80.3z M369.3,218.9v114.9h-8.8V218.9c1,0.1,2.1,0,3.2,0c0.4,0,0.8,0.1,1.2,0.1
		c0.5,0,0.8-0.1,1.2-0.1C367.2,218.9,368.2,218.9,369.3,218.9z M240.2,157.1v52l-46.2,1v-53H240.2z M113.9,157.8
		c0-0.7,0.5-1.2,1.2-1.2h62.6v53.5c0,8.4,6.8,15.2,15.2,15.2h48.3c8.4,0,15.2-6.8,15.2-15.2v-53.5h32.3c0,0.2,0.1,0.3,0.1,0.5
		c0.8,4.1,2.1,8.1,3.5,12c0.3,0.8,0.6,1.5,0.9,2.2c1.6,3.9,3.5,7.6,5.7,11.1c0.2,0.4,0.5,0.7,0.7,1c2.2,3.5,4.8,6.7,7.5,9.8
		c0.3,0.3,0.5,0.6,0.8,0.9c2.9,3.1,6,5.9,9.4,8.4c0.3,0.2,0.6,0.6,0.9,0.8v127.3c0,0.7-0.5,1.2-1.2,1.2H115.2
		c-0.7,0-1.2-0.5-1.2-1.2V157.8z M166.4,420.3l-43.4,0.3v-10.1h43.2L166.4,420.3z M366.2,420.3l-43.4,0.3v-10.1h43.2L366.2,420.3z
		 M415.2,367.6v7.3c0,10.7-8.7,19.4-19.4,19.4h-13.7h-75.5H182.3h-75.5H93c-10.7,0-19.4-8.7-19.4-19.4v-7.3c0-7.8,5-14.2,11.1-14.2
		h319.1C409.9,353.4,415.2,360.1,415.2,367.6z M333,337.3c0.9-2,1.3-4.3,1.3-6.6V212.6c3.2,1.4,6.6,2.3,10,3.2v121.5H333z"></path><path d="M361.9,155.9c0.9,0.2,1.8,0.3,2.9,0.3l2.7-0.2c0.2,0,0.3-0.1,0.5-0.2l25.5,25.5c0,0,3.7,2.7,9.6-0.8
		c5.9-3.4,1.8-10.7,1.8-10.7l-25.7-25.7c0.2-1,0.5-1.9,0.5-2.9c0-8.2-6.7-14.9-14.9-14.9c-8.2,0-14.9,6.7-14.8,16.4
		c0.4,4.5,2.9,8.5,6.5,10.8C358.1,154.7,359.9,155.4,361.9,155.9z M364.8,140l0,0.3l-1.1,1.1c0-0.1-0.1-0.1-0.1-0.1
		C363.5,140.7,363.8,140.1,364.8,140z"></path></svg>